# xmcd
#
# Track frame offsets: 
#        150
#        21711
#        37866
#        61009
#        77358
#        90083
#        104421
#        119496
#        139644
#        154739
#        175505
#        189152
#        204429
#        218191
#
# Disc length: 3257 seconds
#
# Revision: 1
# Processed by: cddbd v1.5.2PL0 Copyright (c) Steve Scherf et al.
# Submitted via: ExactAudioCopyFreeDBPlugin 1.0
#
DISCID=a70cb70e
DTITLE=Sharrie Williams - Out Of The Dark
DYEAR=2011
DGENRE=Blues
TTITLE0=Can't Nobody
TTITLE1=City Limit Musicians
TTITLE2=Out Of The Dark
TTITLE3=Whats Wrong With You
TTITLE4=Need More Money
TTITLE5=Although I Sing The Blues
TTITLE6=Prodigal Son
TTITLE7=Gone Too Long
TTITLE8=Gatekeepers
TTITLE9=What Kind Of Man
TTITLE10=Breakin' Out
TTITLE11=Choices
TTITLE12=My Old Piano
TTITLE13=R.I.P.
EXTD=
EXTT0=
EXTT1=
EXTT2=
EXTT3=
EXTT4=
EXTT5=
EXTT6=
EXTT7=
EXTT8=
EXTT9=
EXTT10=
EXTT11=
EXTT12=
EXTT13=
PLAYORDER=
